
<svg version="1.1" xmlns="http://www.w3.org/2000/svg" xmlns:xlink="http://www.w3.org/1999/xlink" x="0px" y="0px"
	 width="3054.52px" height="921.84px" viewBox="0 0 3054.52 921.84" style="enable-background:new 0 0 3054.52 921.84;"
	 xml:space="preserve">
<style type="text/css">
	.st0{fill:#FFD58D;stroke:#FFD58D;stroke-miterlimit:10;}
	.st1{stroke:#000000;stroke-miterlimit:10;}
	.st2{fill:#FFFFFF;}
	.st3{fill:url(#SVGID_1_);}
	.st4{fill:url(#SVGID_2_);}
	.st5{fill:#F8FAFF;}
	.st6{fill:none;stroke:#000000;stroke-miterlimit:10;}
	.st7{fill:#EFBE89;stroke:#FFD58D;stroke-miterlimit:10;}
	.st8{fill:#FFE0B3;}
	.st9{fill:#EFBE89;}
	.st10{fill:#FFE0B3;stroke:#FFD58D;stroke-miterlimit:10;}
	.st11{fill:url(#SVGID_3_);}
	.st12{fill:url(#SVGID_4_);}
	.st13{fill:url(#SVGID_5_);}
	.st14{fill:url(#SVGID_6_);}
	.st15{fill:url(#SVGID_7_);}
	.st16{fill:url(#SVGID_8_);}
	.st17{fill:#EAEAEA;}
	.st18{fill:#D1D1D1;}
	.st19{fill:#D6D6D6;}
	.st20{fill:#ADADAD;}
	.st21{fill:url(#SVGID_9_);}
	.st22{fill:url(#SVGID_10_);}
	.st23{fill:url(#SVGID_11_);}
	.st24{fill:url(#SVGID_12_);}
	.st25{fill:url(#SVGID_13_);}
	.st26{fill:url(#SVGID_14_);}
	.st27{fill:url(#SVGID_15_);}
	.st28{fill:url(#SVGID_16_);}
</style>
<defs>
</defs>
<g>
	<path class="st0" d="M1599.59,564.31c0-123.96-101.27-114.67-101.27-114.67l0,0c0,0-105.92-9.27-105.92,114.69
		c-5.02,0-10.96,3.42-10.96,13.01s4.11,15.75,10.96,15.75c8.86,22.99,19.15,42.41,30.54,58.27c25.61,35.65,56.82,53.36,89.99,53.36
		c69.86,0,87.81-111.63,87.81-111.63c8.49,0,10.96-6.16,10.96-15.75S1605.4,564,1599.59,564.31z"/>
	<g>
		<g>
			<path d="M1394.95,570.28c-3.41-4.37-7.68-2.17-9.6,2.29c-2.53,5.88-0.29,12.92,5.12,16.3c0.41,0.26,0.79-0.39,0.38-0.65
				c-4.33-2.71-6.73-8.21-5.5-13.23c1.04-4.24,5.01-9.38,9.07-4.18C1394.72,571.19,1395.25,570.66,1394.95,570.28L1394.95,570.28z"
				/>
		</g>
	</g>
	<g>
		<g>
			<path d="M1599.05,571.53c4.02-5.15,8.17-0.14,9.07,4.18c1.07,5.1-1.05,10.45-5.5,13.23c-0.41,0.26-0.03,0.9,0.38,0.65
				c5.41-3.38,7.65-10.42,5.12-16.3c-1.92-4.46-6.18-6.67-9.6-2.29C1598.23,571.38,1598.75,571.91,1599.05,571.53L1599.05,571.53z"
				/>
		</g>
	</g>
</g>
<g>
	<g>
		<path class="st1" d="M1392.4,565.02c0,0,6.85,1.37,9.59,15.07c0,0-2.74-52.05,19.18-58.9l16.44-5.14
			c3.26-1.02,5.47-4.03,5.47-7.45v-16.73c0-1.21,0.98-2.19,2.19-2.19h130.45c0.88,0,1.6,0.72,1.6,1.6v23.06
			c0,5.48,9.59-4.11,16.44,16.44c6.85,20.55,2.74,49.31,2.74,49.31l4.11-15.07l-1.37-35.61c0,0-2.74-19.18,0-21.92
			c6.85-6.85,8.22-16.44,8.22-16.44c-3.45,2.92-6.85,8.22-10.96,5.48c8.22-2.74,12.33-13.7,12.33-21.92c0,0-5.48,12.33-16.44,15.07
			c0,0,16.44-16.44,15.07-27.39c0,0-8.22,17.81-19.18,16.44c8.05,0.8,24.66-21.92,16.44-45.2c-4.11,12.33-10.96,20.55-19.18,24.66
			c9.59-8.22,13.7-15.07,10.96-38.35c-1.37,9.59-16.44,26.03-28.76,30.13c10.96-9.59,12.33-26.03,6.85-36.98
			c-1.37,8.22-21.92,31.5-36.98,31.5c0,0,13.7-19.18,12.33-26.03c-4.11,6.85-23.29,24.66-36.98,21.92c0,0,1.37-5.48,1.37-17.81
			c0,0-15.29,19.16-30.93,19.17c0,0,6.28-2.73,7.65-15.06c0,0-6.85,10.96-16.44,12.33c-0.61,0.09,5.48-8.22,2.74-10.96
			c-1.37,4.11-10.15,10.77-10.96,10.96c-12.48,2.9-34.42,11.58-45.75,28.83c-0.52,0.79-1.06,1.56-1.65,2.29
			C1414.37,475.81,1392.4,506.13,1392.4,565.02z"/>
		<g>
			<path class="st2" d="M1553.57,488.62c3.01-2.35,5.4-5.27,7.16-8.56c1.78-3.28,2.91-6.88,3.51-10.64
				c0.19,3.82-0.81,7.71-2.63,11.12C1559.78,483.92,1557.03,486.93,1553.57,488.62z"/>
		</g>
		<g>
			<path class="st2" d="M1535.83,487.56c2.12-0.84,3.96-2.16,5.48-3.77c1.51-1.62,2.76-3.48,3.71-5.48c0.97-2,1.66-4.13,2.28-6.29
				c0.31-1.08,0.58-2.18,0.84-3.28c0.29-1.1,0.53-2.2,0.83-3.3c-0.08,1.14-0.22,2.26-0.35,3.39c-0.16,1.13-0.35,2.25-0.57,3.37
				c-0.45,2.24-1.14,4.45-2.13,6.54c-1.01,2.08-2.36,4.03-4.08,5.59c-0.86,0.78-1.79,1.48-2.8,2.04
				C1538.03,486.91,1536.95,487.34,1535.83,487.56z"/>
		</g>
		<g>
			<path class="st2" d="M1514,488.37c3.62-0.9,7.01-2.54,9.96-4.73c2.94-2.2,5.5-4.91,7.49-7.99c2.01-3.07,3.46-6.5,4.48-10.04
				c0.51-1.77,0.9-3.59,1.18-5.42c0.31-1.83,0.48-3.68,0.61-5.55c0.09,1.87,0.02,3.74-0.13,5.61c-0.18,1.87-0.49,3.72-0.92,5.56
				c-0.86,3.66-2.33,7.21-4.38,10.39c-2.08,3.17-4.75,5.96-7.89,8.07c-1.57,1.06-3.23,1.96-4.98,2.67
				C1517.67,487.61,1515.85,488.13,1514,488.37z"/>
		</g>
		<g>
			<path class="st2" d="M1502.07,487.91c2.46-0.9,4.77-2.11,6.78-3.71c2.01-1.6,3.75-3.5,5.14-5.65c1.41-2.13,2.47-4.49,3.22-6.95
				c0.21-0.61,0.36-1.24,0.48-1.87c0.16-0.63,0.24-1.27,0.33-1.91c0.22-1.28,0.23-2.58,0.23-3.89c0.48,2.58,0.3,5.28-0.3,7.86
				c-0.59,2.59-1.67,5.07-3.12,7.3c-1.47,2.22-3.32,4.21-5.52,5.72c-0.55,0.37-1.09,0.76-1.69,1.05c-0.59,0.3-1.15,0.67-1.78,0.88
				c-0.62,0.22-1.22,0.5-1.86,0.67C1503.34,487.6,1502.7,487.76,1502.07,487.91z"/>
		</g>
		<g>
			<path class="st2" d="M1483.52,487.91c2.01-0.85,3.96-1.78,5.79-2.9c1.82-1.13,3.56-2.39,5.09-3.87c1.55-1.46,2.9-3.12,3.99-4.94
				c0.29-0.45,0.53-0.92,0.75-1.41c0.25-0.47,0.42-0.98,0.61-1.48c0.23-0.49,0.33-1.02,0.5-1.53c0.14-0.52,0.21-1.06,0.34-1.59
				c0.01,1.09-0.11,2.19-0.37,3.27c-0.15,0.53-0.28,1.07-0.5,1.58c-0.19,0.52-0.4,1.04-0.66,1.53c-0.98,2-2.38,3.77-3.98,5.3
				c-1.62,1.52-3.44,2.81-5.41,3.81C1487.73,486.68,1485.66,487.45,1483.52,487.91z"/>
		</g>
		<g>
			<path class="st2" d="M1462.96,488.26c2.07-1.51,3.49-3.55,4.52-5.77c1.05-2.23,1.67-4.67,2.59-7.07c-0.14,2.55-0.6,5.1-1.69,7.49
				c-0.56,1.18-1.27,2.3-2.19,3.24C1465.3,487.1,1464.18,487.86,1462.96,488.26z"/>
		</g>
		<g>
			<path class="st2" d="M1590.45,472.96c1.69-1.57,3.28-3.22,4.71-5c1.42-1.78,2.73-3.64,3.86-5.61c1.15-1.96,2.11-4.02,2.95-6.14
				l0.59-1.61l0.51-1.63l0.48-1.65c0.13-0.56,0.27-1.12,0.41-1.68c-0.04,0.57-0.09,1.15-0.15,1.73l-0.26,1.72l-0.38,1.7l-0.47,1.68
				c-0.68,2.23-1.65,4.36-2.81,6.39c-1.18,2.01-2.55,3.91-4.14,5.61C1594.16,470.17,1592.4,471.71,1590.45,472.96z"/>
		</g>
		<g>
			<path class="st2" d="M1586.24,451.15c1.46-1.86,2.78-3.73,3.84-5.75c1.08-2.02,1.89-4.15,2.61-6.41
				c0.07,2.38-0.62,4.76-1.73,6.87C1589.83,447.97,1588.24,449.86,1586.24,451.15z"/>
		</g>
		<g>
			<path class="st2" d="M1569.06,441.62c1.13-1.74,2.12-3.45,2.87-5.29c0.78-1.83,1.29-3.73,1.74-5.76
				c0.35,2.06-0.02,4.21-0.82,6.14C1572.04,438.64,1570.77,440.42,1569.06,441.62z"/>
		</g>
		<g>
			<path class="st2" d="M1535.84,440.57c1.72-1.79,3.37-3.59,4.91-5.49c0.78-0.94,1.52-1.91,2.24-2.9c0.7-1,1.38-2.01,1.95-3.12
				c-0.62,2.43-2.06,4.57-3.61,6.5C1539.74,437.47,1537.94,439.22,1535.84,440.57z"/>
		</g>
	</g>
	<g>
		<path class="st2" d="M1569.92,489.38c2.36-1.9,4.24-4.19,5.65-6.76c1.43-2.57,2.36-5.38,2.92-8.35c0.23,3.03-0.57,6.14-2.05,8.83
			C1574.95,485.78,1572.71,488.14,1569.92,489.38z"/>
	</g>
</g>
<linearGradient id="SVGID_1_" gradientUnits="userSpaceOnUse" x1="1484.1019" y1="632.9779" x2="1485.7734" y2="532.6859">
	<stop  offset="0.32" style="stop-color:#29ABE2"/>
	<stop  offset="0.3931" style="stop-color:#39B1E4"/>
	<stop  offset="0.5361" style="stop-color:#63C2EA"/>
	<stop  offset="0.735" style="stop-color:#A7DCF3"/>
	<stop  offset="0.9689" style="stop-color:#FFFFFF"/>
</linearGradient>
<path class="st3" d="M1508.62,539.56c0,0-29.12-0.09-42.37,0c-13.25,0.09-12.25,12.16-12.25,12.16s-0.73,11.79-0.02,23.05
	c0.71,11.25,9.18,11.43,9.18,11.43s33.3,0.09,43.28,0c9.98-0.09,10.25-11.7,10.25-11.7s0.09-11.43,0-22.14
	C1516.6,541.65,1508.62,539.56,1508.62,539.56z"/>
<linearGradient id="SVGID_2_" gradientUnits="userSpaceOnUse" x1="1560.1086" y1="633.061" x2="1561.3777" y2="533.8615">
	<stop  offset="0.32" style="stop-color:#29ABE2"/>
	<stop  offset="0.3931" style="stop-color:#39B1E4"/>
	<stop  offset="0.5361" style="stop-color:#63C2EA"/>
	<stop  offset="0.735" style="stop-color:#A7DCF3"/>
	<stop  offset="0.9689" style="stop-color:#FFFFFF"/>
</linearGradient>
<path class="st4" d="M1589.05,552.36c-0.08-10.71,0.24-12.7-7.21-12.79c-10.57,0-25.99-0.09-37.82,0
	c-11.82,0.09-10.93,12.16-10.93,12.16s-0.65,11.79-0.02,23.05c0.63,11.25,8.19,11.43,8.19,11.43s29.72,0.09,38.63,0
	c8.91-0.09,9.15-1.76,9.15-11.7C1589.13,568.96,1589.13,563.06,1589.05,552.36z"/>
<path d="M1541.75,538.99c-5.34,0-9.66,4.33-9.64,9.67c0,1.13-0.94,2.04-2.08,2.04h-10.68c-1.13,0-2.08-0.91-2.08-2.04
	c0.02-5.34-4.3-9.67-9.64-9.67h-45.1c-5.32,0-9.64,4.32-9.64,9.64v0.84c0,0.27-0.16,0.52-0.4,0.64l-51.21,23.6v4.63l51.61-21.06
	v20.01c0,5.32,4.32,9.64,9.64,9.64h45.1c5.32,0,9.64-4.32,9.64-9.64v-21.08c0-1.15,0.93-2.08,2.08-2.08h10.68
	c1.15,0,2.08,0.93,2.08,2.08v21.08c0,5.32,4.32,9.64,9.64,9.64h44.21c2.08,0,3.76-1.68,3.76-3.76v-40.54c0-2.01-1.63-3.64-3.64-3.64
	H1541.75z M1515.44,550.71v3.43v21.78c0,5.32-4.32,9.64-9.64,9.64h-41.42c-5.32,0-9.64-4.32-9.64-9.64V550
	c0-5.32,4.32-9.64,9.64-9.64h41.42c5.32,0,9.64,4.32,9.64,9.64V550.71z M1586.96,543.41v38.51c0,1.95-1.58,3.54-3.53,3.54
	l-39.84,0.1c-5.32,0-9.64-4.32-9.64-9.64v-21.78v-3.43V550c0-5.32,4.32-9.64,9.64-9.64l40.22-0.11
	C1585.55,540.25,1586.96,541.66,1586.96,543.41z"/>
<g>
	<g>
		<path d="M1504.51,551.58c-2.6,7.14-5.2,14.28-7.79,21.41c-0.66,1.82,2.24,2.6,2.89,0.8c2.6-7.14,5.2-14.28,7.79-21.41
			C1508.06,550.56,1505.16,549.78,1504.51,551.58L1504.51,551.58z"/>
	</g>
</g>
<g>
	<line class="st5" x1="1493.91" y1="553.05" x2="1486.89" y2="572.33"/>
	<g>
		<path d="M1492.46,552.65c-2.34,6.43-4.68,12.86-7.02,19.28c-0.66,1.82,2.24,2.6,2.89,0.8c2.34-6.43,4.68-12.86,7.02-19.28
			C1496.02,551.63,1493.12,550.84,1492.46,552.65L1492.46,552.65z"/>
	</g>
</g>
<g>
	<g>
		<path d="M1479.96,553.82c-2.06,5.65-4.11,11.29-6.17,16.94c-0.66,1.82,2.24,2.6,2.89,0.8c2.06-5.65,4.11-11.29,6.17-16.94
			C1483.51,552.8,1480.61,552.02,1479.96,553.82L1479.96,553.82z"/>
	</g>
</g>
<g>
	<g>
		<path d="M1571.68,553.95c-2.02,5.56-4.04,11.11-6.07,16.67c-0.66,1.82,2.24,2.6,2.89,0.8c2.02-5.56,4.04-11.11,6.07-16.67
			C1575.24,552.93,1572.34,552.14,1571.68,553.95L1571.68,553.95z"/>
	</g>
</g>
<g>
	<line class="st5" x1="1562.19" y1="553.6" x2="1555.9" y2="570.86"/>
	<g>
		<path d="M1560.74,553.2c-2.09,5.75-4.19,11.51-6.28,17.26c-0.66,1.82,2.24,2.6,2.89,0.8c2.09-5.75,4.19-11.51,6.28-17.26
			C1564.29,552.18,1561.4,551.4,1560.74,553.2L1560.74,553.2z"/>
	</g>
</g>
<g>
	<g>
		<path d="M1549.58,553.74c-2.07,5.7-4.15,11.4-6.22,17.1c-0.66,1.82,2.24,2.6,2.89,0.8c2.07-5.7,4.15-11.4,6.22-17.1
			C1553.14,552.72,1550.24,551.94,1549.58,553.74L1549.58,553.74z"/>
	</g>
</g>
<path class="st6" d="M1528.01,577.36c0,0,4.57,23.84,13.73,28.69c1.84,1.18,4.02,3.13,4.73,5.19c0.64,1.85,1.03,5.01-1.02,6.25
	c-3.76,2.28-15.86,2.01-19.33,0.79"/>
<path class="st7" d="M1417,643c0,0-19-36-23-51c0,0,0-1,1-1s2-3,1-4s0-3,1-3s3,0,3-1s1,0,1,0s5.67,3.39,3.67,9.39
	s17.19,49.72,17.19,49.72L1417,643z"/>
<path class="st8" d="M1520.28,617.41c-2.63,0.88-7.88-0.88-6.13-7.88C1514.15,609.53,1515.9,616.54,1520.28,617.41z"/>
<path class="st8" d="M1543.5,610.24c1.38,1.47,5.26,8.54-12.83,7.43c-0.19-0.01-0.23-0.29-0.04-0.34c1.77-0.49,6.84-1.09,9.83-2.57
	c2.65-1.31,2.73-3.53,2.75-4.4C1543.21,610.2,1543.4,610.13,1543.5,610.24z"/>
<path class="st9" d="M1443.63,510.18c0,0,9.7-14.17,16.28-14.08c5,0,53.05-5.92,53.05-5.92h-67.68c-0.93,0-1.69,0.76-1.68,1.69
	L1443.63,510.18z"/>
<path class="st9" d="M1532.08,490.18l43.48-0.03c0.71,0,1.28,0.57,1.28,1.28v23.6c-0.06-0.55-2.6-13.61-12.59-14.85
	c-2.57-0.32-5.2-6.41-10.36-6.88C1549.65,492.91,1537.78,490.58,1532.08,490.18z"/>
<path class="st10" d="M1552.59,632.82c0,0,6.71-8.5,17.51-7.74c10.8,0.76,17.64-14.76,17.8-16.59c0.15-1.83,4.11-8.37,8.07-11.57
	s-7.15,24.91-8.37,35.89H1552.59z"/>
<path class="st8" d="M1521.24,633.14c0,0-48.41-10.26-72.55-8.57c-15.75,1.11-24.21-24.58-24.43-27.24s-6-12.21-11.77-16.88
	c-1.8,13.04,3.44,32.88,12.21,52.37L1521.24,633.14z"/>
<radialGradient id="SVGID_3_" cx="1125.7085" cy="589.5381" r="809.2661" fx="697.4266" fy="520.2349" gradientUnits="userSpaceOnUse">
	<stop  offset="1.127253e-03" style="stop-color:#29ABE2"/>
	<stop  offset="0.3825" style="stop-color:#29AAE0"/>
	<stop  offset="0.5199" style="stop-color:#27A4D9"/>
	<stop  offset="0.6178" style="stop-color:#259BCD"/>
	<stop  offset="0.697" style="stop-color:#228FBD"/>
	<stop  offset="0.7649" style="stop-color:#1E7EA7"/>
	<stop  offset="0.825" style="stop-color:#19698B"/>
	<stop  offset="0.8793" style="stop-color:#13516B"/>
	<stop  offset="0.9293" style="stop-color:#0D3445"/>
	<stop  offset="0.9737" style="stop-color:#05151C"/>
	<stop  offset="1" style="stop-color:#000000"/>
</radialGradient>
<path class="st11" d="M1528.63,846.5c0,0-177.97-330.21-539.68-306.82S425.99,283.54,425.99,283.54S358.75,162.3,253.4,134.23
	L428.35,0c0,0,111.13,37.41,147.36,144.98C611.95,252.55,849.89,463,992.06,459.88C1190.31,471.19,1425.9,539.68,1528.63,846.5z"/>
<radialGradient id="SVGID_4_" cx="1494.036" cy="797.9464" r="1212.7754" gradientUnits="userSpaceOnUse">
	<stop  offset="1.126884e-03" style="stop-color:#FF9D66"/>
	<stop  offset="0.3733" style="stop-color:#FD9C65"/>
	<stop  offset="0.5075" style="stop-color:#F69863"/>
	<stop  offset="0.603" style="stop-color:#EB905E"/>
	<stop  offset="0.6804" style="stop-color:#DA8657"/>
	<stop  offset="0.7465" style="stop-color:#C4784E"/>
	<stop  offset="0.8052" style="stop-color:#A86843"/>
	<stop  offset="0.8583" style="stop-color:#885436"/>
	<stop  offset="0.907" style="stop-color:#623C27"/>
	<stop  offset="0.9524" style="stop-color:#372216"/>
	<stop  offset="0.9926" style="stop-color:#090604"/>
	<stop  offset="1" style="stop-color:#000000"/>
</radialGradient>
<path class="st12" d="M1528.63,846.5c0,0-194.5-252.44-642.41-208.42C567.07,657.5,295.86,428.36,295.86,428.36
	s-104.1-89.32-208.2-112.62l132.86-129.45c0,0,112.32,31.07,179.44,120.39s308.19,261.5,476.67,261.5
	C1004.02,574.65,1369.74,577.24,1528.63,846.5z"/>
<linearGradient id="SVGID_5_" gradientUnits="userSpaceOnUse" x1="1476.802" y1="754.8525" x2="314.114" y2="546.7578">
	<stop  offset="1.126884e-03" style="stop-color:#FFFB7D"/>
	<stop  offset="0.3733" style="stop-color:#FDF97C"/>
	<stop  offset="0.5075" style="stop-color:#F6F279"/>
	<stop  offset="0.603" style="stop-color:#EBE773"/>
	<stop  offset="0.6804" style="stop-color:#DAD66B"/>
	<stop  offset="0.7465" style="stop-color:#C4C160"/>
	<stop  offset="0.8052" style="stop-color:#A8A653"/>
	<stop  offset="0.8583" style="stop-color:#888643"/>
	<stop  offset="0.907" style="stop-color:#626130"/>
	<stop  offset="0.9524" style="stop-color:#37361B"/>
	<stop  offset="0.9926" style="stop-color:#090905"/>
	<stop  offset="1" style="stop-color:#000000"/>
</linearGradient>
<path class="st13" d="M1528.63,846.5c0,0-262.8-180.38-833.85-130.54c-10.33,0.9-20.71,1.37-31.09,1.45
	C190.46,720.98,249.08,582.74,0,539.77l79.44-166.88c0,0,137.79-16.34,297.23,185.68c80.81,104.59,312.51,79.07,417.77,84.62
	c129.2,6.8,234.69,20.07,331.07,34.7c7.79,1.18,15.52,2.66,23.14,4.47C1394.57,740.59,1528.63,846.5,1528.63,846.5z"/>
<radialGradient id="SVGID_6_" cx="1565.7416" cy="782.576" r="884.6193" gradientUnits="userSpaceOnUse">
	<stop  offset="1.126639e-03" style="stop-color:#C899FF"/>
	<stop  offset="0.3733" style="stop-color:#C798FD"/>
	<stop  offset="0.5075" style="stop-color:#C194F6"/>
	<stop  offset="0.603" style="stop-color:#B88DEB"/>
	<stop  offset="0.6804" style="stop-color:#AB83DA"/>
	<stop  offset="0.7465" style="stop-color:#9975C4"/>
	<stop  offset="0.8052" style="stop-color:#8465A8"/>
	<stop  offset="0.8583" style="stop-color:#6B5288"/>
	<stop  offset="0.907" style="stop-color:#4D3B62"/>
	<stop  offset="0.9524" style="stop-color:#2B2137"/>
	<stop  offset="0.9926" style="stop-color:#070609"/>
	<stop  offset="1" style="stop-color:#000000"/>
</radialGradient>
<path class="st14" d="M1525.89,849.24c0,0,177.97-330.21,539.68-306.82s562.96-256.14,562.96-256.14s67.24-121.24,172.59-149.3
	L2626.17,2.74c0,0-111.13,37.41-147.36,144.98s-274.17,318.02-416.35,314.9C1864.22,473.93,1628.62,542.42,1525.89,849.24z"/>
<radialGradient id="SVGID_7_" cx="1558.3348" cy="810.3508" r="928.4485" gradientUnits="userSpaceOnUse">
	<stop  offset="1.126270e-03" style="stop-color:#FFE266"/>
	<stop  offset="0.3733" style="stop-color:#FDE065"/>
	<stop  offset="0.5075" style="stop-color:#F6DA63"/>
	<stop  offset="0.603" style="stop-color:#EBD05E"/>
	<stop  offset="0.6804" style="stop-color:#DAC157"/>
	<stop  offset="0.7465" style="stop-color:#C4AD4E"/>
	<stop  offset="0.8052" style="stop-color:#A89543"/>
	<stop  offset="0.8583" style="stop-color:#887836"/>
	<stop  offset="0.907" style="stop-color:#625727"/>
	<stop  offset="0.9524" style="stop-color:#373116"/>
	<stop  offset="0.9926" style="stop-color:#090804"/>
	<stop  offset="1" style="stop-color:#000000"/>
</radialGradient>
<path class="st15" d="M1525.89,849.24c0,0,194.5-252.44,642.41-208.42c319.15,19.42,590.36-209.72,590.36-209.72
	s104.1-89.32,208.2-112.62l-132.86-129.45c0,0-112.32,31.07-179.44,120.39c-67.12,89.32-308.19,261.5-476.67,261.5
	C2050.5,577.39,1684.78,579.98,1525.89,849.24z"/>
<radialGradient id="SVGID_8_" cx="1549.0767" cy="832.5707" r="954.9417" gradientUnits="userSpaceOnUse">
	<stop  offset="1.126026e-03" style="stop-color:#88FF85"/>
	<stop  offset="0.3733" style="stop-color:#87FD84"/>
	<stop  offset="0.5075" style="stop-color:#83F680"/>
	<stop  offset="0.603" style="stop-color:#7DEB7A"/>
	<stop  offset="0.6804" style="stop-color:#74DA71"/>
	<stop  offset="0.7465" style="stop-color:#68C466"/>
	<stop  offset="0.8052" style="stop-color:#5AA858"/>
	<stop  offset="0.8583" style="stop-color:#498847"/>
	<stop  offset="0.907" style="stop-color:#346233"/>
	<stop  offset="0.9524" style="stop-color:#1D371D"/>
	<stop  offset="0.9926" style="stop-color:#050905"/>
	<stop  offset="1" style="stop-color:#000000"/>
</radialGradient>
<path class="st16" d="M1525.89,849.24c0,0,262.8-180.38,833.85-130.54c10.33,0.9,20.71,1.37,31.09,1.45
	c473.23,3.57,414.62-134.67,663.69-177.65l-79.44-166.88c0,0-137.79-16.34-297.23,185.68c-80.81,104.59-312.51,79.07-417.77,84.62
	c-129.2,6.8-234.69,20.07-331.07,34.7c-7.79,1.18-15.52,2.66-23.14,4.47C1659.95,743.33,1525.89,849.24,1525.89,849.24z"/>
<g>
	<path class="st17" d="M1264.33,921.34c-5.93,0-11.43-2.68-15.09-7.35c-0.04-0.05-0.08-0.1-0.11-0.16l-56.77-92.32
		c-0.24-0.39-0.25-0.87-0.03-1.27c0.22-0.4,0.63-0.64,1.09-0.64h448.5c0.69,0,1.25,0.56,1.25,1.25v99.23c0,0.69-0.56,1.25-1.25,1.25
		H1264.33z"/>
	<g>
		<path class="st18" d="M1641.94,820.11c0.41,0,0.75,0.34,0.75,0.75v99.23c0,0.41-0.34,0.75-0.75,0.75h-377.6
			c-5.78,0-11.13-2.61-14.69-7.15c-0.03-0.03-0.05-0.07-0.08-0.11l-56.77-92.32c-0.21-0.34-0.08-0.65-0.02-0.76
			c0.06-0.12,0.26-0.39,0.66-0.39H1641.94 M1641.94,819.11h-448.5c-1.37,0-2.21,1.5-1.49,2.67l56.77,92.32
			c0.04,0.07,0.09,0.14,0.14,0.2c3.73,4.76,9.43,7.54,15.48,7.54h377.6c0.97,0,1.75-0.78,1.75-1.75v-99.23
			C1643.69,819.89,1642.9,819.11,1641.94,819.11L1641.94,819.11z"/>
	</g>
</g>
<g>
	<path class="st19" d="M1257.98,921.34c-6.07,0-11.02-4.94-11.02-11.02V644.34c0-6.07,4.94-11.02,11.02-11.02h498.84
		c6.07,0,11.02,4.94,11.02,11.02v265.98c0,6.07-4.94,11.02-11.02,11.02H1257.98z"/>
	<g>
		<path class="st20" d="M1756.82,633.82c5.8,0,10.52,4.72,10.52,10.52v265.98c0,5.8-4.72,10.52-10.52,10.52h-498.84
			c-5.8,0-10.52-4.72-10.52-10.52V644.34c0-5.8,4.72-10.52,10.52-10.52H1756.82 M1756.82,632.82h-498.84
			c-6.36,0-11.52,5.16-11.52,11.52v265.98c0,6.36,5.16,11.52,11.52,11.52h498.84c6.36,0,11.52-5.16,11.52-11.52V644.34
			C1768.34,637.98,1763.18,632.82,1756.82,632.82L1756.82,632.82z"/>
	</g>
</g>
</svg>
